<svg xmlns="http://www.w3.org/2000/svg" xmlns:xlink="http://www.w3.org/1999/xlink" width="64" height="64">
  <defs>
    <path id="a" d="M.011.021h63.957v63.957H.011z"/>
  </defs>
  <clipPath id="b">
    <use overflow="visible" xlink:href="#a"/>
  </clipPath>
  <path fill="#CCC" d="M28.104 47.708a14.642 14.642 0 0 1-12.65-7.298c-4.021-6.968-1.624-15.909 5.343-19.933a14.447 14.447 0 0 1 5.933-1.881.985.985 0 0 1 .958.496.999.999 0 0 1-.05 1.077c-2.837 4.009-3.091 9.338-.645 13.577 2.434 4.214 7.225 6.692 12.08 6.23.391-.02.766.157.96.495.195.34.174.76-.052 1.077a14.505 14.505 0 0 1-4.595 4.201 14.573 14.573 0 0 1-7.282 1.959zm-3.253-26.757c-1.07.28-2.091.701-3.055 1.258-6.013 3.473-8.082 11.189-4.611 17.203a12.642 12.642 0 0 0 10.919 6.299c2.196 0 4.368-.586 6.282-1.688a12.382 12.382 0 0 0 2.616-2.019c-4.855-.303-9.295-3.025-11.741-7.257-2.455-4.258-2.563-9.462-.41-13.796zm21.236 15.464c-.388 0-1.097-.182-1.47-1.397-.189-.602-.933-1.347-1.528-1.529-1.218-.374-1.399-1.083-1.401-1.473 0-.389.182-1.098 1.399-1.474.6-.184 1.341-.928 1.53-1.534.373-1.208 1.082-1.39 1.47-1.39.389 0 1.1.182 1.468 1.397.186.598.93 1.343 1.526 1.526 1.218.375 1.399 1.085 1.399 1.474s-.184 1.098-1.397 1.473c-.599.184-1.343.928-1.53 1.533-.366 1.212-1.075 1.394-1.466 1.394zM44.6 32.016a5.013 5.013 0 0 1 1.485 1.487 5.024 5.024 0 0 1 1.485-1.487 5.06 5.06 0 0 1-1.485-1.487 5.048 5.048 0 0 1-1.485 1.487zm-9.839 2.133c-.389 0-1.097-.183-1.471-1.397-.188-.601-.93-1.346-1.527-1.528-1.221-.375-1.401-1.085-1.401-1.475 0-.389.183-1.098 1.4-1.471.597-.185 1.341-.93 1.53-1.535.372-1.21 1.08-1.391 1.469-1.391s1.099.182 1.468 1.398c.186.596.929 1.342 1.53 1.528 1.214.372 1.396 1.081 1.397 1.47 0 .39-.182 1.099-1.399 1.475-.6.184-1.343.928-1.53 1.531-.368 1.213-1.078 1.395-1.466 1.395zm-1.488-4.399c.582.373 1.11.902 1.485 1.486a5.004 5.004 0 0 1 1.487-1.486 5.055 5.055 0 0 1-1.487-1.487 5.013 5.013 0 0 1-1.485 1.487zm8.284-4.661c-.388 0-1.097-.182-1.47-1.396-.188-.601-.933-1.347-1.528-1.529-1.218-.374-1.399-1.083-1.401-1.473 0-.39.182-1.098 1.399-1.474.598-.183 1.342-.928 1.53-1.534.373-1.209 1.082-1.391 1.47-1.391.391 0 1.1.182 1.466 1.4.188.595.932 1.341 1.528 1.524 1.219.375 1.399 1.084 1.399 1.474-.002.389-.183 1.099-1.401 1.473-.595.183-1.339.929-1.528 1.534-.365 1.209-1.074 1.392-1.464 1.392zm-1.488-4.399a5.024 5.024 0 0 1 1.485 1.487 5.033 5.033 0 0 1 1.485-1.486 5.1 5.1 0 0 1-1.487-1.486 5.011 5.011 0 0 1-1.483 1.485z" clip-path="url(#b)"/>
</svg>