<svg xmlns="http://www.w3.org/2000/svg" xmlns:xlink="http://www.w3.org/1999/xlink" width="64" height="64">
  <defs>
    <path id="a" d="M.011.021h63.957v63.957H.011z"/>
  </defs>
  <clipPath id="b">
    <use overflow="visible" xlink:href="#a"/>
  </clipPath>
  <path fill="#CCC" d="M44.449 23.372c-.388 0-1.097-.182-1.47-1.396-.187-.602-.931-1.347-1.527-1.53-1.219-.374-1.402-1.083-1.402-1.473 0-.391.184-1.1 1.402-1.474.597-.184 1.341-.928 1.527-1.532.373-1.211 1.082-1.393 1.47-1.393.389 0 1.1.183 1.468 1.399.186.596.93 1.341 1.528 1.525 1.217.374 1.399 1.083 1.399 1.474 0 .389-.183 1.099-1.401 1.473-.597.185-1.341.929-1.528 1.533-.366 1.212-1.077 1.394-1.466 1.394zm-1.487-4.399a5.036 5.036 0 0 1 1.485 1.487 5.043 5.043 0 0 1 1.487-1.487 5.036 5.036 0 0 1-1.487-1.485 5.018 5.018 0 0 1-1.485 1.485zm-9.839-1.179c-.388 0-1.096-.181-1.47-1.395-.187-.601-.93-1.346-1.527-1.529-1.219-.376-1.4-1.084-1.4-1.474 0-.39.182-1.099 1.4-1.473.597-.184 1.34-.928 1.529-1.533.372-1.21 1.08-1.392 1.468-1.392.391 0 1.099.182 1.468 1.399.186.596.93 1.342 1.528 1.525 1.216.374 1.397 1.083 1.399 1.473 0 .389-.182 1.098-1.399 1.474-.599.183-1.343.929-1.53 1.533-.367 1.21-1.075 1.392-1.466 1.392zm-1.486-4.398c.582.374 1.11.901 1.485 1.486a5.048 5.048 0 0 1 1.486-1.486 5.048 5.048 0 0 1-1.487-1.485 5.003 5.003 0 0 1-1.484 1.485zm12.81 13.073c-.646 0-1.298.067-2.01.209a13.41 13.41 0 0 0-11.581-6.617c-3.997 0-7.662 1.813-10.163 4.713-1.073-3.659-.443-7.669 1.785-10.817a1 1 0 0 0 .05-1.078.985.985 0 0 0-.958-.496c-2.12.198-4.116.832-5.932 1.88-6.012 3.473-8.709 10.816-6.49 17.332-1.879 1.829-3.056 4.375-3.056 7.2 0 5.548 4.513 10.06 10.062 10.06h28.295c6.172 0 11.192-5.021 11.192-11.193-.001-6.172-5.022-11.193-11.194-11.193zM16.636 15.996a12.35 12.35 0 0 1 3.057-1.259 14.66 14.66 0 0 0-.43 12.009c-.009.015-.016.03-.024.046-.131.226-.25.457-.368.691-.232.455-.444.914-.62 1.378-.015.039-.037.074-.051.113a9.18 9.18 0 0 0-1.823-.228 9.106 9.106 0 0 0-3.991.733 10.02 10.02 0 0 0-1.565.817c-1.527-5.452.828-11.421 5.815-14.3zm27.811 30.861H16.152c-4.446 0-8.063-3.617-8.063-8.062 0-2.459 1.129-4.635 2.869-6.116l.002-.001a8.366 8.366 0 0 1 1.133-.81c.054-.031.109-.059.164-.09a8.004 8.004 0 0 1 1.045-.501c.195-.074.399-.128.6-.187.25-.075.497-.158.753-.208a8.022 8.022 0 0 1 1.496-.151c.744 0 1.531.135 2.408.412a1 1 0 0 0 1.264-.686 11.29 11.29 0 0 1 1.346-2.987c2.055-3.284 5.679-5.41 9.685-5.41 4.301 0 8.2 2.382 10.182 6.217a.995.995 0 0 0 1.136.509c.854-.218 1.577-.32 2.273-.32 5.069 0 9.193 4.125 9.193 9.195.003 5.072-4.121 9.196-9.191 9.196z" clip-path="url(#b)"/>
</svg>