<svg xmlns="http://www.w3.org/2000/svg" xmlns:xlink="http://www.w3.org/1999/xlink" width="64" height="64">
  <defs>
    <path id="a" d="M.011.021h63.957v63.957H.011z"/>
  </defs>
  <clipPath id="b">
    <use overflow="visible" xlink:href="#a"/>
  </clipPath>
  <path fill="#CCC" d="M45.563 46.395H17.266c-5.547 0-10.061-4.513-10.061-10.06s4.514-10.06 10.061-10.06c.659 0 1.335.08 2.048.242 1.899-5.294 6.969-8.913 12.657-8.913a13.41 13.41 0 0 1 11.581 6.616c.713-.143 1.366-.21 2.011-.21 6.171 0 11.193 5.021 11.193 11.193s-5.023 11.192-11.193 11.192zM17.266 28.274c-4.445 0-8.062 3.616-8.062 8.061 0 4.444 3.617 8.061 8.062 8.061h28.297c5.07 0 9.194-4.124 9.194-9.192 0-5.07-4.124-9.194-9.194-9.194-.693 0-1.417.103-2.274.321a.995.995 0 0 1-1.136-.51 11.423 11.423 0 0 0-10.182-6.217c-5.126 0-9.663 3.453-11.032 8.397a1.002 1.002 0 0 1-1.264.687c-.893-.283-1.658-.414-2.409-.414z" clip-path="url(#b)"/>
</svg>