<svg xmlns="http://www.w3.org/2000/svg" xmlns:xlink="http://www.w3.org/1999/xlink" width="64" height="64">
  <defs>
    <path id="a" d="M.011.021h63.957v63.957H.011z"/>
  </defs>
  <clipPath id="b">
    <use overflow="visible" xlink:href="#a"/>
  </clipPath>
  <path fill="#CCC" d="M45.572 39.405H17.274c-5.547 0-10.06-4.513-10.06-10.06 0-5.547 4.513-10.06 10.06-10.06.66 0 1.336.079 2.048.242 1.901-5.295 6.971-8.914 12.658-8.914 4.791 0 9.159 2.516 11.579 6.616a10.229 10.229 0 0 1 2.013-.208c6.171 0 11.191 5.021 11.191 11.191.001 6.173-5.02 11.193-11.191 11.193zm-28.298-18.12c-4.445 0-8.061 3.616-8.061 8.061s3.616 8.061 8.061 8.061h28.298c5.068 0 9.192-4.124 9.192-9.194 0-5.069-4.124-9.193-9.192-9.193-.699 0-1.421.102-2.274.32a1.001 1.001 0 0 1-1.136-.509c-1.981-3.835-5.881-6.217-10.182-6.217-5.125 0-9.663 3.453-11.033 8.397a1 1 0 0 1-1.264.686c-.889-.281-1.655-.412-2.409-.412zm23.577 32.943l2.498-9.993a1.001 1.001 0 0 0-.728-1.213.997.997 0 0 0-1.212.729l-2.499 9.993a1 1 0 0 0 1.941.484zm-9.141 0l2.498-9.993a1 1 0 1 0-1.938-.484l-2.499 9.993a.999.999 0 1 0 1.939.484zm-9.142 0l2.499-9.993a1 1 0 0 0-.727-1.213.994.994 0 0 0-1.211.729l-2.498 9.993a.999.999 0 1 0 1.937.484z" clip-path="url(#b)"/>
</svg>