<svg xmlns="http://www.w3.org/2000/svg" xmlns:xlink="http://www.w3.org/1999/xlink" width="64" height="64">
  <defs>
    <path id="a" d="M.011.021h63.957v63.957H.011z"/>
  </defs>
  <clipPath id="b">
    <use overflow="visible" xlink:href="#a"/>
  </clipPath>
  <path fill="#CCC" d="M38.785 55.457c-1.799 0-3.265-1.466-3.265-3.266s1.466-3.264 3.265-3.264c1.8 0 3.264 1.464 3.264 3.264s-1.464 3.266-3.264 3.266zm0-4.53c-.698 0-1.267.568-1.267 1.265a1.267 1.267 0 1 0 1.267-1.265zm-13.591 4.53c-1.799 0-3.264-1.466-3.264-3.266s1.465-3.264 3.264-3.264c1.8 0 3.265 1.464 3.265 3.264s-1.465 3.266-3.265 3.266zm0-4.53c-.698 0-1.266.568-1.266 1.265a1.267 1.267 0 1 0 1.266-1.265zm20.386-2.266c-1.8 0-3.264-1.466-3.264-3.266s1.464-3.264 3.264-3.264c1.799 0 3.265 1.464 3.265 3.264s-1.466 3.266-3.265 3.266zm0-4.53a1.266 1.266 0 1 0 .003 2.533 1.266 1.266 0 0 0-.003-2.533zm-13.59 4.53c-1.8 0-3.265-1.466-3.265-3.266s1.465-3.264 3.265-3.264 3.265 1.464 3.265 3.264-1.465 3.266-3.265 3.266zm0-4.53a1.267 1.267 0 1 0 0 2.534 1.267 1.267 0 0 0 0-2.534zm-13.591 4.53c-1.8 0-3.265-1.466-3.265-3.266s1.465-3.264 3.265-3.264c1.799 0 3.264 1.464 3.264 3.264s-1.465 3.266-3.264 3.266zm0-4.53a1.267 1.267 0 1 0 .001 2.533 1.267 1.267 0 0 0-.001-2.533zm27.173-4.726H17.274c-5.547 0-10.061-4.513-10.061-10.06 0-5.547 4.514-10.06 10.061-10.06.66 0 1.336.079 2.048.242 1.901-5.295 6.97-8.914 12.657-8.914 4.792 0 9.16 2.516 11.58 6.616a10.229 10.229 0 0 1 2.013-.208c6.171 0 11.191 5.021 11.191 11.191.001 6.173-5.02 11.193-11.191 11.193zm-28.298-18.12c-4.445 0-8.062 3.616-8.062 8.061s3.617 8.061 8.062 8.061h28.298c5.068 0 9.192-4.124 9.192-9.194 0-5.069-4.124-9.193-9.192-9.193-.699 0-1.421.102-2.274.32a1.001 1.001 0 0 1-1.136-.509 11.428 11.428 0 0 0-10.183-6.217c-5.125 0-9.662 3.453-11.032 8.397a1 1 0 0 1-1.264.686c-.877-.278-1.666-.412-2.409-.412z" clip-path="url(#b)"/>
</svg>