<svg xmlns="http://www.w3.org/2000/svg" xmlns:xlink="http://www.w3.org/1999/xlink" width="64" height="64">
  <defs>
    <path id="a" d="M.011.021h63.957v63.957H.011z"/>
  </defs>
  <clipPath id="b">
    <use overflow="visible" xlink:href="#a"/>
  </clipPath>
  <path fill="#CCC" d="M29.364 54.813a.997.997 0 0 1-.968-1.245l1.092-4.292h-1.973a1 1 0 0 1-.714-1.698l7.102-7.255a1 1 0 1 1 1.683.945l-1.094 4.294h1.972a1 1 0 0 1 .714 1.698l-7.098 7.253c-.195.196-.455.3-.716.3zm.527-7.537h.882a1 1 0 0 1 .968 1.246l-.493 1.936 2.837-2.898h-.881a1 1 0 0 1-.968-1.245l.493-1.938-2.838 2.899zm15.681-7.871H17.274c-5.547 0-10.061-4.513-10.061-10.06 0-5.547 4.514-10.06 10.061-10.06.66 0 1.336.079 2.048.242 1.901-5.295 6.97-8.914 12.657-8.914 4.792 0 9.16 2.516 11.58 6.616a10.229 10.229 0 0 1 2.013-.208c6.171 0 11.191 5.021 11.191 11.191.001 6.173-5.02 11.193-11.191 11.193zm-28.298-18.12c-4.445 0-8.062 3.616-8.062 8.061s3.617 8.061 8.062 8.061h28.298c5.068 0 9.192-4.124 9.192-9.194 0-5.069-4.124-9.193-9.192-9.193-.699 0-1.421.102-2.274.32a1.001 1.001 0 0 1-1.136-.509 11.428 11.428 0 0 0-10.183-6.217c-5.125 0-9.662 3.453-11.032 8.397a1 1 0 0 1-1.264.686c-.877-.278-1.666-.412-2.409-.412z" clip-path="url(#b)"/>
</svg>