<svg xmlns="http://www.w3.org/2000/svg" xmlns:xlink="http://www.w3.org/1999/xlink" width="64" height="64">
  <defs>
    <path id="a" d="M.011.021h63.957v63.957H.011z"/>
  </defs>
  <clipPath id="b">
    <use overflow="visible" xlink:href="#a"/>
  </clipPath>
  <path fill="#CCC" d="M41.237 18.217a.998.998 0 0 1-.707-1.706l1.558-1.558a1 1 0 0 1 1.413 1.413l-1.558 1.558a.993.993 0 0 1-.706.293zM13.025 46.846l1.558-1.558a1 1 0 0 0-1.413-1.413l-1.558 1.558a1 1 0 0 0 1.413 1.413zM9.208 30.899c0-.553-.447-1-.999-1H6.007a1 1 0 1 0 0 1.999h2.202a.998.998 0 0 0 .999-.999zm19.35-19.348V9.348a.999.999 0 1 0-2 0v2.203a1 1 0 1 0 2 0zm-13.975 6.373a1 1 0 0 0 0-1.413l-1.558-1.558a1 1 0 0 0-1.413 1.413l1.558 1.558a.997.997 0 0 0 1.413 0zm43.322 22.744c0 4.827-3.927 8.754-8.754 8.754H27.618c-3.741 0-6.866-2.621-7.674-6.119-4.304-2.648-6.973-7.345-6.973-12.404 0-8.044 6.545-14.59 14.59-14.59 6.739 0 12.567 4.656 14.146 11.147a10.43 10.43 0 0 1 6.031 4.588 7.779 7.779 0 0 1 1.413-.134c4.828 0 8.754 3.929 8.754 8.758zm-38.143.102c.015-.154.063-.297.086-.447.036-.229.075-.452.13-.675a7.67 7.67 0 0 1 .247-.793c.077-.211.153-.419.247-.622.116-.252.252-.488.393-.725.112-.188.221-.377.348-.554a8.05 8.05 0 0 1 .527-.639c.143-.16.278-.326.434-.475.205-.195.429-.366.655-.54.164-.127.319-.262.494-.377.25-.162.518-.293.786-.426.176-.09.341-.191.525-.268.307-.124.631-.208.956-.296.164-.044.319-.109.487-.143.5-.1 1.015-.156 1.544-.156.458 0 .924.048 1.407.146 1.534-4.016 5.427-6.744 9.783-6.744.244 0 .492.011.744.031-1.642-5.154-6.474-8.762-11.992-8.762-6.942 0-12.591 5.648-12.591 12.591a12.605 12.605 0 0 0 4.79 9.874zm36.145-.102c0-3.728-3.031-6.759-6.756-6.759-.505 0-1.038.075-1.675.238a1.013 1.013 0 0 1-1.134-.511 8.444 8.444 0 0 0-5.623-4.365c-.016-.003-.029-.002-.045-.005a10.066 10.066 0 0 0-.935-.166 8.48 8.48 0 0 0-.932-.064 8.5 8.5 0 0 0-8.164 6.214.991.991 0 0 1-.87.725.962.962 0 0 1-.395-.041c-.641-.203-1.217-.3-1.762-.3a5.902 5.902 0 0 0-5.894 5.896c0 .344.048.676.104 1.004.001.004-.002.006-.001.01.483 2.766 2.888 4.879 5.791 4.879h21.533c3.727 0 6.758-3.031 6.758-6.755z" clip-path="url(#b)"/>
</svg>