<svg xmlns="http://www.w3.org/2000/svg" xmlns:xlink="http://www.w3.org/1999/xlink" width="64" height="64">
  <defs>
    <path id="a" d="M.011.021h63.957v63.957H.011z"/>
  </defs>
  <clipPath id="b">
    <use overflow="visible" xlink:href="#a"/>
  </clipPath>
  <path fill="#CCC" d="M31.991 46.59c-8.044 0-14.59-6.545-14.59-14.59 0-8.044 6.545-14.59 14.59-14.59s14.59 6.545 14.59 14.59-6.545 14.59-14.59 14.59zm0-27.181C25.049 19.409 19.4 25.058 19.4 32s5.649 12.591 12.591 12.591S44.582 38.942 44.582 32s-5.648-12.591-12.591-12.591zm14.385-.383l1.558-1.558a.998.998 0 0 0 0-1.413.998.998 0 0 0-1.413 0l-1.558 1.558a.998.998 0 0 0 .707 1.705.987.987 0 0 0 .706-.292zm-28.92 28.92l1.558-1.558a1 1 0 0 0-1.413-1.413l-1.558 1.558a.998.998 0 0 0 .707 1.706.99.99 0 0 0 .706-.293zm15.532-35.293V10.45a1 1 0 1 0-2 0v2.203a.999.999 0 1 0 2 0zm0 40.899v-2.203a1 1 0 1 0-2 0v2.203c0 .553.447.999 1 .999s1-.447 1-.999zM13.639 32.001a1 1 0 0 0-.999-1h-2.203A1 1 0 1 0 10.438 33h2.203a.998.998 0 0 0 .998-.999zm40.9 0a1 1 0 0 0-1-1h-2.203a1 1 0 1 0 0 1.999h2.203c.553 0 1-.447 1-.999zM19.014 19.026a1 1 0 0 0 0-1.413l-1.558-1.558a.998.998 0 0 0-1.413 0 .998.998 0 0 0 0 1.413l1.558 1.558a.996.996 0 0 0 .707.292.989.989 0 0 0 .706-.292zm28.92 28.92a.998.998 0 0 0 0-1.413l-1.558-1.558c-.391-.391-1.022-.391-1.413 0s-.391 1.022 0 1.413l1.558 1.558a.997.997 0 0 0 1.413 0z" clip-path="url(#b)"/>
</svg>