<svg xmlns="http://www.w3.org/2000/svg" xmlns:xlink="http://www.w3.org/1999/xlink" width="64" height="64">
  <defs>
    <path id="a" d="M.011.021h63.957v63.957H.011z"/>
  </defs>
  <clipPath id="b">
    <use overflow="visible" xlink:href="#a"/>
  </clipPath>
  <path fill="#CCC" d="M49.685 21.894c-.457 0-.918.043-1.413.133a10.44 10.44 0 0 0-8.93-5.005c-1.356 0-2.656.291-3.866.777-.607-.081-1.238-.038-1.922.087a10.442 10.442 0 0 0-8.931-5.006c-4.357 0-8.25 2.729-9.783 6.745a7.015 7.015 0 0 0-1.407-.146c-4.352 0-7.893 3.542-7.893 7.895s3.541 7.894 7.893 7.894h7.819c1.34 2.453 3.913 4.14 6.899 4.14h21.534c4.827 0 8.754-3.927 8.754-8.756-.001-4.831-3.927-8.758-8.754-8.758zM20.458 33.267h-7.025a5.901 5.901 0 0 1-5.894-5.895 5.902 5.902 0 0 1 5.894-5.896c.546 0 1.107.096 1.763.303a1 1 0 0 0 1.263-.686 8.497 8.497 0 0 1 8.165-6.214 8.457 8.457 0 0 1 7.535 4.6.966.966 0 0 0 .185.251l-.021.021c-.168.151-.32.317-.478.479-.187.19-.368.383-.539.586a10.404 10.404 0 0 0-.885 1.239c-.082.134-.169.266-.245.405-.232.42-.444.852-.617 1.305a7.008 7.008 0 0 0-1.407-.146c-4.352 0-7.892 3.542-7.892 7.895 0 .581.072 1.143.191 1.688.004.021.002.043.007.065zm29.227 4.139H28.151c-2.413 0-4.486-1.462-5.396-3.541a5.826 5.826 0 0 1-.497-2.352 5.901 5.901 0 0 1 5.894-5.896c.547 0 1.108.096 1.764.302a1.003 1.003 0 0 0 1.263-.686 8.394 8.394 0 0 1 .639-1.585c.069-.134.148-.262.225-.393.233-.399.495-.78.792-1.134.066-.08.127-.165.197-.243a8.559 8.559 0 0 1 2.957-2.13c1.041-.454 2.171-.728 3.355-.728a8.454 8.454 0 0 1 7.534 4.6.999.999 0 0 0 1.134.509c.635-.161 1.165-.236 1.675-.236 3.724 0 6.755 3.031 6.755 6.757-.003 3.725-3.034 6.756-6.757 6.756zm-5.234 17.578a1.002 1.002 0 0 1-.97-1.241l2.498-9.993c.133-.537.67-.856 1.213-.729.536.135.86.678.728 1.213l-2.498 9.993a1 1 0 0 1-.971.757zm-9.139 0a1.002 1.002 0 0 1-.971-1.241l2.499-9.993a1 1 0 0 1 1.94.484l-2.498 9.993a1 1 0 0 1-.97.757zm-9.14 0a1 1 0 0 1-.97-1.241L27.7 43.75a.999.999 0 1 1 1.938.484l-2.498 9.993a.997.997 0 0 1-.968.757zm-9.142 0a.999.999 0 0 1-.97-1.241l2.498-9.993a1 1 0 1 1 1.938.484l-2.499 9.993a.996.996 0 0 1-.967.757z" clip-path="url(#b)"/>
</svg>