<svg xmlns="http://www.w3.org/2000/svg" xmlns:xlink="http://www.w3.org/1999/xlink" width="64" height="64">
  <defs>
    <path id="a" d="M.011.021h63.957v63.957H.011z"/>
  </defs>
  <clipPath id="b">
    <use overflow="visible" xlink:href="#a"/>
  </clipPath>
  <path fill="#CCC" d="M49.685 27.751c-.455 0-.916.043-1.413.134a10.438 10.438 0 0 0-8.93-5.006c-1.356 0-2.656.292-3.866.776-.609-.08-1.236-.035-1.922.088a10.443 10.443 0 0 0-8.931-5.005c-4.358 0-8.25 2.728-9.783 6.744a7.015 7.015 0 0 0-1.407-.146c-4.352 0-7.893 3.542-7.893 7.895s3.541 7.894 7.893 7.894h7.819c1.34 2.453 3.913 4.14 6.899 4.14h21.534c4.827 0 8.754-3.927 8.754-8.754-.001-4.831-3.927-8.76-8.754-8.76zM20.458 39.124h-7.025a5.901 5.901 0 0 1-5.894-5.895 5.902 5.902 0 0 1 5.894-5.896c.546 0 1.107.096 1.763.303a1 1 0 0 0 1.263-.686 8.498 8.498 0 0 1 8.165-6.214 8.46 8.46 0 0 1 7.535 4.6c.05.095.112.18.185.251l-.021.021c-.17.152-.323.319-.481.482a9.77 9.77 0 0 0-.534.581 10.13 10.13 0 0 0-.36.46c-.187.25-.361.51-.525.778-.084.136-.171.269-.249.41-.231.419-.443.851-.616 1.304a7.008 7.008 0 0 0-1.407-.146c-4.352 0-7.892 3.542-7.892 7.896 0 .58.072 1.145.191 1.688.005.02.003.042.008.063zm29.227 4.14H28.151a5.896 5.896 0 0 1-5.398-3.544 5.843 5.843 0 0 1-.495-2.349 5.903 5.903 0 0 1 5.894-5.897c.547 0 1.108.096 1.764.302a.998.998 0 0 0 1.263-.686 8.34 8.34 0 0 1 .64-1.586c.068-.134.147-.261.223-.391.235-.4.498-.783.794-1.138.065-.079.126-.163.194-.239a8.584 8.584 0 0 1 2.966-2.135c1.039-.452 2.167-.724 3.348-.724a8.454 8.454 0 0 1 7.534 4.6 1 1 0 0 0 1.134.51c.637-.162 1.169-.237 1.675-.237 3.724 0 6.755 3.032 6.755 6.759-.003 3.723-3.034 6.755-6.757 6.755z" clip-path="url(#b)"/>
</svg>